<?xml version="1.0" encoding="utf-8"?>
<!-- Generator: Adobe Illustrator 16.0.4, SVG Export Plug-In . SVG Version: 6.00 Build 0)  -->
<!DOCTYPE svg PUBLIC "-//W3C//DTD SVG 1.1//EN" "http://www.w3.org/Graphics/SVG/1.1/DTD/svg11.dtd">
<svg version="1.1" id="Layer_1" xmlns="http://www.w3.org/2000/svg" xmlns:xlink="http://www.w3.org/1999/xlink" x="0px" y="0px"
	 width="183.785px" height="154.054px" viewBox="0 0 183.785 154.054" enable-background="new 0 0 183.785 154.054"
	 xml:space="preserve">
<g>
	<g>
		<path d="M155.946,85.135h-20c0-22.056-17.944-40-40-40s-40,17.944-40,40h-20c0-33.084,26.916-60,60-60
			S155.946,52.051,155.946,85.135z"/>
		<g>
			<polygon points="116.031,76.381 145.943,128.19 175.861,76.381 			"/>
		</g>
	</g>
</g>
<g>
	<g>
		<path d="M96.946,144.136c-33.084,0-60-26.916-60-60h20c0,22.056,17.944,40,40,40s40-17.944,40-40h20
			C156.946,117.22,130.03,144.136,96.946,144.136z"/>
		<g>
			<polygon points="76.861,92.889 46.949,41.081 17.031,92.889 			"/>
		</g>
	</g>
</g>
</svg>
